HIERARCHY
ROOT Hips
{
	OFFSET 0.000000 0.000000 0.000000 
	CHANNELS 6 Xposition Yposition Zposition Zrotation Yrotation Xrotation
	JOINT LeftUpLeg
	{
		OFFSET 1.363060 -1.794630 0.839290 
		CHANNELS 3 Zrotation Yrotation Xrotation
		JOINT LeftLeg
		{
			OFFSET 2.448110 -6.726130 0.000000 
			CHANNELS 3 Zrotation Yrotation Xrotation
			JOINT LeftFoot
			{
				OFFSET 2.562200 -7.039590 0.000000 
				CHANNELS 3 Zrotation Yrotation Xrotation
				JOINT LeftToeBase
				{
					OFFSET 0.157640 -0.433110 2.322550 
					CHANNELS 3 Zrotation Yrotation Xrotation
					End Site
					{
						OFFSET 0.000000 0.000000 0.000000 
					}
				}
			}
		}
	}
	JOINT RightUpLeg
	{
		OFFSET -1.305520 -1.794630 0.839290 
		CHANNELS 3 Zrotation Yrotation Xrotation
		JOINT RightLeg
		{
			OFFSET -2.542530 -6.985550 0.000000 
			CHANNELS 3 Zrotation Yrotation Xrotation
			JOINT RightFoot
			{
				OFFSET -2.568260 -7.056230 0.000000 
				CHANNELS 3 Zrotation Yrotation Xrotation
				JOINT RightToeBase
				{
					OFFSET -0.164730 -0.452590 2.363150 
					CHANNELS 3 Zrotation Yrotation Xrotation
					End Site
					{
						OFFSET 0.000000 0.000000 0.000000 
					}
				}
			}
		}
	}
	JOINT Spine
	{
		OFFSET 0.028270 2.035590 -0.193380 
		CHANNELS 3 Zrotation Yrotation Xrotation
		JOINT Spine1
		{
			OFFSET 0.056720 2.048850 -0.042750 
			CHANNELS 3 Zrotation Yrotation Xrotation
			JOINT Neck1
			{
				OFFSET -0.054170 1.746240 0.172020 
				CHANNELS 3 Zrotation Yrotation Xrotation
				JOINT Head
				{
					OFFSET 0.104070 1.761360 -0.123970 
					CHANNELS 3 Zrotation Yrotation Xrotation
					End Site
					{
						OFFSET 0.000000 0.000000 0.000000 
					}
				}
			}
			JOINT LeftArm
			{
				OFFSET 3.362410 1.200890 -0.311210 
				CHANNELS 3 Zrotation Yrotation Xrotation
				JOINT LeftForeArm
				{
					OFFSET 4.983000 -0.000000 -0.000000 
					CHANNELS 3 Zrotation Yrotation Xrotation
					JOINT LeftHand
					{
						OFFSET 3.483560 -0.000000 -0.000000 
						CHANNELS 3 Zrotation Yrotation Xrotation
						JOINT LeftHandIndex1
						{
							OFFSET 0.715260 -0.000000 -0.000000 
							CHANNELS 3 Zrotation Yrotation Xrotation
							End Site
							{
								OFFSET 0.000000 0.000000 0.000000 
							}
						}
					}
				}
			}
			JOINT RightArm
			{
				OFFSET -3.136600 1.374050 -0.404650 
				CHANNELS 3 Zrotation Yrotation Xrotation
				JOINT RightForeArm
				{
					OFFSET -5.241900 -0.000000 -0.000000 
					CHANNELS 3 Zrotation Yrotation Xrotation
					JOINT RightHand
					{
						OFFSET -3.444170 -0.000000 -0.000000 
						CHANNELS 3 Zrotation Yrotation Xrotation
						JOINT RightHandIndex1
						{
							OFFSET -0.622530 -0.000000 -0.000000 
							CHANNELS 3 Zrotation Yrotation Xrotation
							End Site
							{
								OFFSET 0.000000 0.000000 0.000000 
							}
						}
					}
				}
			}
		}
	}
}
MOTION
Frames: 10
Frame Time: 0.041667
4.057175 17.397701 31.303870 -2.008679 -27.539035 24.465849 -3.690547 -33.095963 -34.237737 -4.641459 18.375172 26.386764 1.661873 3.464864 10.922484 3.978700 -12.132000 -36.200500 22.749610 29.554241 -24.271791 3.941733 -16.707969 28.434398 1.025239 -7.839012 2.018461 -0.173700 2.684900 -7.402600 1.672141 -2.887676 -5.647419 -0.241690 -1.192653 2.572140 5.746419 -4.551574 10.713614 -0.200600 -1.742700 14.219000 -43.843566 -13.256544 39.911299 43.459513 -40.958568 -27.100429 1.447404 -5.400120 -65.205478 -7.125000 0.000000 0.000000 37.543848 23.911290 48.246572 -56.245030 44.070494 -34.019235 -0.621264 4.225521 -50.755321 7.125000 0.000000 0.000000 
4.063612 17.392168 31.363494 -2.116407 -28.159446 24.388744 -2.979468 -34.229012 -33.627467 -4.942494 17.728493 24.619793 1.187019 5.108450 10.398449 4.219100 -12.446400 -37.330100 22.782719 29.397345 -23.959439 3.950705 -16.606565 28.389944 0.809204 -7.241831 2.105525 -0.179500 2.728800 -7.524700 1.627099 -2.721295 -5.611799 -0.379572 -1.107259 2.650547 5.743675 -4.649564 10.608985 -0.224600 -1.779100 14.147900 -43.821709 -13.141107 40.028671 43.427885 -40.967358 -27.078550 1.455810 -5.407389 -65.218117 -7.125000 0.000000 0.000000 37.908653 23.981290 48.275268 -55.922661 43.981172 -33.702055 -0.589132 4.233126 -50.565344 7.125000 0.000000 0.000000 
4.069484 17.391377 31.423119 -2.253316 -28.770263 24.339176 -2.167406 -35.432124 -33.040280 -5.189831 17.113087 22.933608 0.711786 6.711896 9.974063 4.445200 -12.730400 -38.367400 22.779474 29.687675 -23.539490 3.979702 -16.484214 28.213934 0.738095 -7.060496 2.135282 -0.176700 2.707500 -7.465400 1.613051 -2.618629 -5.600611 -0.361836 -1.047473 2.582750 5.801882 -4.602132 10.517694 -0.179700 -1.757000 14.057500 -43.938909 -12.853629 40.146573 43.437065 -41.005617 -27.091050 1.430291 -5.405957 -65.163430 -7.125000 0.000000 0.000000 38.192467 23.991074 48.514766 -55.712392 43.920777 -33.490338 -0.580639 4.242788 -50.472200 7.125000 0.000000 0.000000 
4.066548 17.395104 31.471789 -2.583716 -29.707098 24.554631 -1.443927 -36.049317 -32.394425 -5.390301 16.419062 21.322293 0.452074 7.707437 9.922222 4.546200 -12.853800 -38.823700 22.721408 30.350518 -23.402987 4.032391 -16.446767 28.021954 0.636600 -6.828374 2.175640 -0.178200 2.719500 -7.498700 1.575970 -2.360768 -5.572670 -0.303077 -0.915893 2.703844 5.875645 -4.640691 10.465973 -0.182000 -1.745900 14.099900 -43.808065 -12.754086 40.166943 43.481510 -41.044417 -27.156497 1.436104 -5.422166 -65.139432 -7.125000 0.000000 0.000000 38.478654 24.147273 48.547969 -55.508947 43.844864 -33.268138 -0.562136 4.228288 -50.372417 7.125000 0.000000 0.000000 
4.072194 17.390248 31.522606 -2.714792 -30.313202 24.675397 -0.580650 -37.082189 -32.023444 -5.580525 15.817134 19.704005 0.151739 8.829689 9.803676 4.677900 -13.011600 -39.412000 22.580798 30.664798 -23.285861 4.053919 -16.412734 27.918976 0.556926 -6.633858 2.180555 -0.180000 2.732900 -7.536100 1.554323 -2.252829 -5.563553 -0.277480 -0.856095 2.718547 5.937577 -4.662354 10.390766 -0.160900 -1.742800 14.081600 -43.781336 -12.586250 40.228454 43.523755 -41.084422 -27.210271 1.434051 -5.430496 -65.096196 -7.125000 0.000000 0.000000 38.741112 24.230845 48.649615 -55.292879 43.767215 -33.039791 -0.547320 4.221069 -50.279470 7.125000 0.000000 0.000000 
4.079873 17.384376 31.570599 -2.800822 -30.835091 24.834477 0.273536 -38.034198 -31.843892 -5.741715 15.277481 18.214622 -0.016981 9.589352 9.755379 4.773300 -13.123900 -39.833900 22.369452 30.963952 -23.278665 4.065275 -16.417611 27.863295 0.496012 -6.490114 2.147368 -0.181600 2.744900 -7.569300 1.538915 -2.189133 -5.564083 -0.228761 -0.817976 2.708226 6.008190 -4.678376 10.314417 -0.128600 -1.738900 14.063100 -43.751532 -12.417342 40.283675 43.586779 -41.131469 -27.284869 1.434488 -5.438519 -65.047314 -7.125000 0.000000 0.000000 38.978727 24.305196 48.746130 -55.091796 43.691835 -32.829380 -0.532770 4.218658 -50.202516 7.125000 0.000000 0.000000 
4.089246 17.377601 31.616447 -2.858882 -31.292792 25.012079 1.032430 -38.803396 -31.781868 -5.881310 14.765958 16.843005 -0.021107 9.896754 9.795871 4.831400 -13.191400 -40.089200 22.118276 31.226276 -23.365954 4.062887 -16.463963 27.876017 0.437673 -6.348530 2.069964 -0.184000 2.763000 -7.619600 1.526852 -2.154529 -5.571132 -0.168006 -0.795229 2.679734 6.080880 -4.696619 10.239395 -0.093500 -1.736800 14.048600 -43.710196 -12.255262 40.338501 43.671673 -41.185782 -27.382023 1.441538 -5.446491 -65.007762 -7.125000 0.000000 0.000000 39.195417 24.367430 48.831018 -54.900343 43.616471 -32.628171 -0.519070 4.214605 -50.134779 7.125000 0.000000 0.000000 
4.100087 17.370148 31.661504 -2.900026 -31.705222 25.179764 1.621936 -39.343036 -31.802925 -5.998681 14.302736 15.660306 0.140118 9.716412 9.872364 4.850500 -13.213400 -40.172700 21.863343 31.443413 -23.471974 4.056648 -16.516564 27.905496 0.378223 -6.201229 1.983523 -0.186700 2.782500 -7.673900 1.517115 -2.141787 -5.581217 -0.105542 -0.784115 2.636507 6.152795 -4.711649 10.166859 -0.058700 -1.733400 14.035600 -43.654516 -12.097001 40.389840 43.774571 -41.245816 -27.497595 1.451940 -5.454007 -64.976766 -7.125000 0.000000 0.000000 39.402237 24.418458 48.907695 -54.718308 43.545444 -32.443293 -0.504555 4.219466 -50.074793 7.125000 0.000000 0.000000 
4.110363 17.363033 31.705770 -2.974035 -32.143876 25.342390 1.991819 -39.586094 -31.817105 -6.093264 13.881941 14.697558 0.447224 9.081165 9.995165 4.840800 -13.202300 -40.130500 21.645127 31.684636 -23.563876 4.053617 -16.566153 27.928387 0.311825 -6.034953 1.902174 -0.189000 2.799600 -7.721300 1.508119 -2.122498 -5.590482 -0.028336 -0.770449 2.588046 6.225873 -4.719404 10.098952 -0.027900 -1.724800 14.026200 -43.574337 -11.938830 40.436240 43.895205 -41.308725 -27.622532 1.440696 -5.457500 -64.950214 -7.125000 0.000000 0.000000 39.602825 24.465300 48.989206 -54.557890 43.481570 -32.281696 -0.490705 4.226928 -50.021354 7.125000 0.000000 0.000000 
4.120187 17.356371 31.751166 -3.088292 -32.628512 25.478860 2.124357 -39.580119 -31.768613 -6.169352 13.504548 13.955261 0.850881 8.131320 10.197174 4.828200 -13.187700 -40.075000 21.485793 31.948691 -23.591625 4.054175 -16.598425 27.934522 0.236056 -5.840555 1.826997 -0.191100 2.815000 -7.764000 1.495071 -2.074060 -5.594891 0.041829 -0.744333 2.546030 6.299868 -4.731451 10.039888 0.001200 -1.716400 14.023800 -43.478256 -11.796857 40.499099 44.038509 -41.376535 -27.758799 1.408390 -5.455547 -64.931492 -7.125000 0.000000 0.000000 39.807396 24.493044 49.047432 -54.403102 43.424479 -32.133048 -0.476044 4.240074 -49.966892 7.125000 0.000000 0.000000 
